<?xml version="1.0" encoding="iso-8859-1"?>
<!-- Generator: Adobe Illustrator 16.0.0, SVG Export Plug-In . SVG Version: 6.00 Build 0)  -->
<!DOCTYPE svg PUBLIC "-//W3C//DTD SVG 1.1//EN" "http://www.w3.org/Graphics/SVG/1.1/DTD/svg11.dtd">
<svg version="1.1" id="Layer_1" xmlns="http://www.w3.org/2000/svg" xmlns:xlink="http://www.w3.org/1999/xlink" x="0px" y="0px"
	 width="100px" height="100px" viewBox="0 0 100 100" style="enable-background:new 0 0 100 100;" xml:space="preserve">
<rect width="100" height="100"/>
<g>
	<path style="fill:#FFFFFF;" d="M47.883,19.91H18.18c-0.278,0-0.417,0.139-0.417,0.417v29.286H15.62
		c-0.278,0-0.417,0.139-0.417,0.416c0,0.278,0.139,0.418,0.417,0.418h2.143v29.227c0,0.277,0.139,0.416,0.417,0.416h22.321h7.382
		c0.277,0,0.416-0.139,0.416-0.416v-7.322c0-0.238-0.079-0.377-0.238-0.416c-0.197-0.08-0.337-0.041-0.416,0.119l-7.322,7.201
		H25.918V50.447h1.904l7.381,7.143c0.08,0.078,0.179,0.119,0.298,0.119c0.079,0,0.119-0.02,0.119-0.061
		c0.198-0.078,0.298-0.197,0.298-0.357v-7.262c0-0.277-0.139-0.416-0.417-0.416h-9.583v-28.87h14.285l7.441,7.263
		c0.119,0.119,0.258,0.158,0.416,0.119c0.159-0.04,0.238-0.179,0.238-0.417v-7.381C48.299,20.049,48.16,19.91,47.883,19.91z
		 M47.466,73.305v5.951h-5.953L47.466,73.305z M25.084,79.256h-6.488V50.447h6.488V79.256z M25.084,49.613h-6.488v-28.87h6.488
		V49.613z M35.084,50.447v5.893l-6.071-5.893H35.084z M47.466,26.756l-6.072-6.013h6.072V26.756z"/>
	<path style="fill:#FFFFFF;" d="M84.559,71.936c-0.199-0.08-0.357-0.041-0.477,0.119l-7.322,7.201h-2.09V20.743h2.736
		c0.279,0,0.418-0.139,0.418-0.416c0-0.278-0.139-0.417-0.418-0.417H66.871c-0.277,0-0.416,0.139-0.416,0.417v59.347
		c0,0.277,0.139,0.416,0.416,0.416h10.068h7.439c0.279,0,0.418-0.139,0.418-0.416v-7.322C84.797,72.152,84.717,72.014,84.559,71.936
		z M73.836,79.256h-6.549V20.743h6.549V79.256z M83.963,79.256h-6.012l6.012-5.951V79.256z"/>
</g>
</svg>
